<?xml version="1.0" encoding="UTF-8" standalone="no"?>
<svg
   xmlns:dc="http://purl.org/dc/elements/1.1/"
   xmlns:cc="http://creativecommons.org/ns#"
   xmlns:rdf="http://www.w3.org/1999/02/22-rdf-syntax-ns#"
   xmlns:svg="http://www.w3.org/2000/svg"
   xmlns="http://www.w3.org/2000/svg"
   xmlns:sodipodi="http://sodipodi.sourceforge.net/DTD/sodipodi-0.dtd"
   xmlns:inkscape="http://www.inkscape.org/namespaces/inkscape"
   width="24"
   height="24"
   fill-rule="evenodd"
   clip-rule="evenodd"
   version="1.1"
   id="svg4"
   sodipodi:docname="iconmonstr-frown-thin_600.svg"
   inkscape:version="0.92.4 (5da689c313, 2019-01-14)">
  <metadata
     id="metadata10">
    <rdf:RDF>
      <cc:Work
         rdf:about="">
        <dc:format>image/svg+xml</dc:format>
        <dc:type
           rdf:resource="http://purl.org/dc/dcmitype/StillImage" />
        <dc:title></dc:title>
      </cc:Work>
    </rdf:RDF>
  </metadata>
  <defs
     id="defs8" />
  <sodipodi:namedview
     pagecolor="#ffffff"
     bordercolor="#666666"
     borderopacity="1"
     objecttolerance="10"
     gridtolerance="10"
     guidetolerance="10"
     inkscape:pageopacity="0"
     inkscape:pageshadow="2"
     inkscape:window-width="2531"
     inkscape:window-height="1668"
     id="namedview6"
     showgrid="false"
     inkscape:zoom="9.8333333"
     inkscape:cx="12"
     inkscape:cy="20.135593"
     inkscape:window-x="140"
     inkscape:window-y="54"
     inkscape:window-maximized="0"
     inkscape:current-layer="svg4" />
  <path
     d="m 12,-288 c 165.575,0 300,134.425 300,300 0,165.575 -134.425,300 -300,300 -165.575,0 -300,-134.425 -300,-300 0,-165.575 134.425,-300 300,-300 z m 0,25 c 151.775,0 275,123.225 275,275 0,151.775 -123.225,275 -275,275 -151.775,0 -275,-123.225 -275,-275 0,-151.775 123.225,-275 275,-275 z M 11.525,87 c 46.05,0.125 90.325,19.775 127.925,55.6 l -16.575,18.7 C 89.8,129.55 51.225,112.1 11.475,112 H 11.15 c -39.2,0 -77.3,16.925 -110,47.85 l -16.6,-18.7 C -78.175,106.15 -34.375,87 11.15,87 Z m -87.35,-162.5 c 13.8,0 25,11.2 25,25 0,13.8 -11.2,25 -25,25 -13.8,0 -25,-11.2 -25,-25 0,-13.8 11.2,-25 25,-25 z m 175.325,0 c 13.8,0 25,11.2 25,25 0,13.8 -11.2,25 -25,25 -13.8,0 -25,-11.2 -25,-25 0,-13.8 11.2,-25 25,-25 z"
     id="path2"
     inkscape:connector-curvature="0"
     style="stroke-width:25" />
</svg>
